<?xml version="1.0" encoding="UTF-8"?>
<svg width="38px" height="60px" viewBox="0 0 38 60" version="1.1" xmlns="http://www.w3.org/2000/svg" xmlns:xlink="http://www.w3.org/1999/xlink">
    <title>at-icon</title>
    <g id="PRODUCT-PAGE" stroke="none" stroke-width="1" fill="none" fill-rule="evenodd">
        <g id="Product-page" transform="translate(-192.000000, -2327.000000)" fill="#0FF6F6">
            <g id="AT-BLOCK" transform="translate(0.000000, 2060.000000)">
                <g id="Title" transform="translate(191.000000, 256.000000)">
                    <path d="M1.98316372,45.2245747 L17.1079048,45.2245747 L17.1079048,45.2245747 L13.4457168,69.0627059 C13.3618546,69.6085865 13.7363945,70.1190938 14.2822751,70.202956 C14.6493174,70.2593437 15.0173809,70.1076965 15.2381706,69.8091139 L38.7393305,38.0275747 C39.0676981,37.5835103 38.9739073,36.9573305 38.5298429,36.6289629 C38.3577351,36.5016961 38.1493321,36.4330125 37.9352808,36.4330125 L22.8105397,36.4330125 L22.8105397,36.4330125 L26.4727277,12.5948814 C26.5565899,12.0490008 26.18205,11.5384935 25.6361694,11.4546313 C25.2691271,11.3982436 24.9010636,11.5498908 24.6802739,11.8484734 L1.17911405,43.6300126 C0.850746454,44.074077 0.944537218,44.7002568 1.38860159,45.0286244 C1.56070945,45.1558912 1.76911244,45.2245747 1.98316372,45.2245747 Z" id="at-icon"></path>
                </g>
            </g>
        </g>
    </g>
</svg>