<svg class="icon" width="18px" height="18px" viewBox="0 0 18 18" version="1.1" xmlns="http://www.w3.org/2000/svg" xmlns:xlink="http://www.w3.org/1999/xlink"><g stroke="none" stroke-width="1" fill="none" fill-rule="evenodd"><g transform="translate(-679.000000, -396.000000)" fill="#FFFFFF" fill-rule="nonzero"><g transform="translate(461.000000, 378.000000)"><g transform="translate(0.405367, 1.170468)"><g transform="translate(217.594633, 16.829532)"><path d="M9,18 C13.97025,18 18,13.97025 18,9 C18,4.02975 13.97025,0 9,0 C4.02975,0 0,4.02975 0,9 C0,13.97025 4.02975,18 9,18 Z M5.23458827,9.10828571 C5.54737263,8.77314286 6.05294735,8.77314286 6.36573171,9.10828571 L8.20004,11.0737143 L8.20004,4.85714286 C8.20004,4.384 8.55762212,4 9,4 C9.44237788,4 9.79996,4.384 9.79996,4.85714286 L9.79996,11.0737143 L11.6342683,9.10828571 C11.9470526,8.77314286 12.4526274,8.77314286 12.7654117,9.10828571 C13.0781961,9.44342857 13.0781961,9.98514286 12.7654117,10.3202857 L9.56557172,13.7488571 C9.40957952,13.916 9.20478976,14 9,14 C8.79521024,14 8.59042048,13.916 8.43442828,13.7488571 L5.23458827,10.3202857 C4.92180391,9.98514286 4.92180391,9.44342857 5.23458827,9.10828571 Z"></path></g></g></g></g></g></svg>