<?xml version="1.0" encoding="UTF-8"?>
<svg width="64px" height="63px" viewBox="0 0 64 63" version="1.1" xmlns="http://www.w3.org/2000/svg" xmlns:xlink="http://www.w3.org/1999/xlink">
    <!-- Generator: Sketch 60.1 (88133) - https://sketch.com -->
    <title>photoshop</title>
    <desc>Created with Sketch.</desc>
    <g id="PRODUCT-PAGE" stroke="none" stroke-width="1" fill="none" fill-rule="evenodd">
        <g id="Product-page" transform="translate(-766.000000, -3825.000000)" fill-rule="nonzero">
            <g id="TARGET-GROUP-BLOCK" transform="translate(0.000000, 3220.000000)">
                <g id="Designer-Icons" transform="translate(674.905367, 555.500000)">
                    <g id="photoshop" transform="translate(91.094633, 49.500000)">
                        <g id="Surfaces" fill="#001E36">
                            <g id="Photo_Surface">
                                <g id="Outline_no_shadow">
                                    <path d="M11.3333333,0 L52.6666667,0 C58.9333333,0 64,5.06666667 64,11.3333333 L64,51.0666667 C64,57.3333333 58.9333333,62.4 52.6666667,62.4 L11.3333333,62.4 C5.06666667,62.4 0,57.3333333 0,51.0666667 L0,11.3333333 C0,5.06666667 5.06666667,0 11.3333333,0 Z" id="Path"></path>
                                </g>
                            </g>
                        </g>
                        <g id="Outlined_Mnemonics_Logos" transform="translate(14.400000, 15.733333)" fill="#31A8FF">
                            <g id="Ps">
                                <path d="M0,28.0266667 L0,0.586666667 C0,0.4 0.08,0.293333333 0.266666667,0.293333333 C0.72,0.293333333 1.14666667,0.293333333 1.76,0.266666667 C2.4,0.24 3.06666667,0.24 3.78666667,0.213333333 C4.50666667,0.186666667 5.28,0.186666667 6.10666667,0.16 C6.93333333,0.133333333 7.73333333,0.133333333 8.53333333,0.133333333 C10.72,0.133333333 12.5333333,0.4 14.0266667,0.96 C15.36,1.41333333 16.5866667,2.16 17.6,3.14666667 C18.4533333,4 19.12,5.04 19.5466667,6.18666667 C19.9466667,7.30666667 20.16,8.45333333 20.16,9.65333333 C20.16,11.9466667 19.6266667,13.84 18.56,15.3333333 C17.4933333,16.8266667 16,17.9466667 14.2666667,18.5866667 C12.4533333,19.2533333 10.4533333,19.4933333 8.26666667,19.4933333 C7.62666667,19.4933333 7.2,19.4933333 6.93333333,19.4666667 C6.66666667,19.44 6.29333333,19.44 5.78666667,19.44 L5.78666667,28 C5.81333333,28.1866667 5.68,28.3466667 5.49333333,28.3733333 C5.46666667,28.3733333 5.44,28.3733333 5.38666667,28.3733333 L0.32,28.3733333 C0.106666667,28.3733333 0,28.2666667 0,28.0266667 Z M5.81333333,5.44 L5.81333333,14.4 C6.18666667,14.4266667 6.53333333,14.4533333 6.85333333,14.4533333 L8.26666667,14.4533333 C9.30666667,14.4533333 10.3466667,14.2933333 11.3333333,13.9733333 C12.1866667,13.7333333 12.9333333,13.2266667 13.52,12.56 C14.08,11.8933333 14.3466667,10.9866667 14.3466667,9.81333333 C14.3733333,8.98666667 14.16,8.16 13.7333333,7.44 C13.28,6.74666667 12.64,6.21333333 11.8666667,5.92 C10.88,5.52 9.81333333,5.36 8.72,5.38666667 C8.02666667,5.38666667 7.41333333,5.38666667 6.90666667,5.41333333 C6.37333333,5.38666667 6,5.41333333 5.81333333,5.44 L5.81333333,5.44 Z" id="Shape"></path>
                                <path d="M36.8,12.7733333 C36,12.3466667 35.1466667,12.0533333 34.24,11.8666667 C33.2533333,11.6533333 32.2666667,11.52 31.2533333,11.52 C30.72,11.4933333 30.16,11.5733333 29.6533333,11.7066667 C29.3066667,11.7866667 29.0133333,11.9733333 28.8266667,12.24 C28.6933333,12.4533333 28.6133333,12.72 28.6133333,12.96 C28.6133333,13.2 28.72,13.44 28.88,13.6533333 C29.12,13.9466667 29.44,14.1866667 29.7866667,14.3733333 C30.4,14.6933333 31.04,14.9866667 31.68,15.2533333 C33.12,15.7333333 34.5066667,16.4 35.7866667,17.2 C36.6666667,17.76 37.3866667,18.5066667 37.8933333,19.4133333 C38.32,20.2666667 38.5333333,21.2 38.5066667,22.16 C38.5333333,23.4133333 38.16,24.6666667 37.4666667,25.7066667 C36.72,26.7733333 35.68,27.6 34.48,28.08 C33.1733333,28.64 31.5733333,28.9333333 29.6533333,28.9333333 C28.4266667,28.9333333 27.2266667,28.8266667 26.0266667,28.5866667 C25.0933333,28.4266667 24.16,28.1333333 23.3066667,27.7333333 C23.12,27.6266667 22.9866667,27.44 23.0133333,27.2266667 L23.0133333,22.5866667 C23.0133333,22.5066667 23.04,22.4 23.12,22.3466667 C23.2,22.2933333 23.28,22.32 23.36,22.3733333 C24.4,22.9866667 25.4933333,23.4133333 26.6666667,23.68 C27.68,23.9466667 28.7466667,24.08 29.8133333,24.08 C30.8266667,24.08 31.5466667,23.9466667 32.0266667,23.7066667 C32.4533333,23.52 32.7466667,23.0666667 32.7466667,22.5866667 C32.7466667,22.2133333 32.5333333,21.8666667 32.1066667,21.52 C31.68,21.1733333 30.8,20.7733333 29.4933333,20.2666667 C28.1333333,19.7866667 26.88,19.1466667 25.7066667,18.3466667 C24.88,17.76 24.1866667,16.9866667 23.68,16.08 C23.2533333,15.2266667 23.04,14.2933333 23.0666667,13.36 C23.0666667,12.2133333 23.3866667,11.12 23.9733333,10.1333333 C24.64,9.06666667 25.6266667,8.21333333 26.7733333,7.68 C28.0266667,7.04 29.6,6.74666667 31.4933333,6.74666667 C32.5866667,6.74666667 33.7066667,6.82666667 34.8,6.98666667 C35.6,7.09333333 36.3733333,7.30666667 37.0933333,7.6 C37.2,7.62666667 37.3066667,7.73333333 37.36,7.84 C37.3866667,7.94666667 37.4133333,8.05333333 37.4133333,8.16 L37.4133333,12.5066667 C37.4133333,12.6133333 37.36,12.72 37.28,12.7733333 C37.04,12.8266667 36.9066667,12.8266667 36.8,12.7733333 Z" id="Path"></path>
                            </g>
                        </g>
                    </g>
                </g>
            </g>
        </g>
    </g>
</svg>