<?xml version="1.0" encoding="UTF-8"?>
<svg width="64px" height="63px" viewBox="0 0 64 63" version="1.1" xmlns="http://www.w3.org/2000/svg" xmlns:xlink="http://www.w3.org/1999/xlink">
    <!-- Generator: Sketch 60.1 (88133) - https://sketch.com -->
    <title>illustrator</title>
    <desc>Created with Sketch.</desc>
    <g id="PRODUCT-PAGE" stroke="none" stroke-width="1" fill="none" fill-rule="evenodd">
        <g id="Product-page" transform="translate(-864.000000, -3825.000000)" fill-rule="nonzero">
            <g id="TARGET-GROUP-BLOCK" transform="translate(0.000000, 3220.000000)">
                <g id="Designer-Icons" transform="translate(674.905367, 555.500000)">
                    <g id="illustrator" transform="translate(189.094633, 49.500000)">
                        <g id="Surfaces" fill="#330000">
                            <g id="Drawing_Surface">
                                <g id="Outline_no_shadow">
                                    <path d="M11.3333333,0 L52.6666667,0 C58.9333333,0 64,5.06666667 64,11.3333333 L64,51.0666667 C64,57.3333333 58.9333333,62.4 52.6666667,62.4 L11.3333333,62.4 C5.06666667,62.4 0,57.3333333 0,51.0666667 L0,11.3333333 C0,5.06666667 5.06666667,0 11.3333333,0 Z" id="Path"></path>
                                </g>
                            </g>
                        </g>
                        <g id="Outlined_Mnemonics_Logos" transform="translate(13.066667, 13.600000)" fill="#FF9A00">
                            <g id="Ai">
                                <path d="M17.9466667,23.84 L8.02666667,23.84 L6,30.1066667 C5.94666667,30.3466667 5.73333333,30.5066667 5.49333333,30.48 L0.48,30.48 C0.186666667,30.48 0.106666667,30.32 0.186666667,30 L8.77333333,5.28 C8.85333333,5.01333333 8.93333333,4.72 9.04,4.4 C9.14666667,3.84 9.2,3.25333333 9.2,2.66666667 C9.17333333,2.53333333 9.28,2.4 9.41333333,2.37333333 C9.44,2.37333333 9.46666667,2.37333333 9.49333333,2.37333333 L16.32,2.37333333 C16.5333333,2.37333333 16.64,2.45333333 16.6666667,2.58666667 L26.4,30.0533333 C26.48,30.3466667 26.4,30.48 26.1333333,30.48 L20.56,30.48 C20.3733333,30.5066667 20.1866667,30.3733333 20.1333333,30.1866667 L17.9466667,23.84 Z M9.57333333,18.4266667 L16.3466667,18.4266667 C16.1866667,17.8666667 15.9733333,17.2 15.7333333,16.5066667 C15.4933333,15.7866667 15.2533333,15.0133333 15.0133333,14.2133333 C14.7466667,13.3866667 14.5066667,12.5866667 14.24,11.76 C13.9733333,10.9333333 13.7333333,10.16 13.52,9.38666667 C13.3066667,8.64 13.12,7.94666667 12.9333333,7.30666667 L12.88,7.30666667 C12.64,8.45333333 12.3466667,9.6 11.9733333,10.7466667 C11.5733333,12.0266667 11.1733333,13.36 10.7466667,14.6933333 C10.3733333,16.0533333 9.97333333,17.3066667 9.57333333,18.4266667 L9.57333333,18.4266667 Z" id="Shape"></path>
                                <path d="M32.2133333,6.93333333 C31.3333333,6.96 30.48,6.61333333 29.84,6 C29.2266667,5.33333333 28.9066667,4.45333333 28.9333333,3.54666667 C28.9066667,2.64 29.2533333,1.78666667 29.8933333,1.17333333 C30.5333333,0.56 31.3866667,0.24 32.2666667,0.24 C33.3066667,0.24 34.1066667,0.56 34.6933333,1.17333333 C35.28,1.81333333 35.6,2.66666667 35.5733333,3.54666667 C35.6,4.45333333 35.28,5.33333333 34.64,6 C34.0266667,6.64 33.12,6.98666667 32.2133333,6.93333333 Z M29.2266667,30.08 L29.2266667,9.54666667 C29.2266667,9.28 29.3333333,9.17333333 29.5733333,9.17333333 L34.8533333,9.17333333 C35.0933333,9.17333333 35.2,9.30666667 35.2,9.54666667 L35.2,30.08 C35.2,30.3733333 35.0933333,30.5066667 34.8533333,30.5066667 L29.6266667,30.5066667 C29.36,30.5066667 29.2266667,30.3466667 29.2266667,30.08 Z" id="Shape"></path>
                            </g>
                        </g>
                    </g>
                </g>
            </g>
        </g>
    </g>
</svg>