<?xml version="1.0" encoding="UTF-8"?>
<svg width="40px" height="40px" viewBox="0 0 40 40" version="1.1" xmlns="http://www.w3.org/2000/svg" xmlns:xlink="http://www.w3.org/1999/xlink">
    <title>timeline-icon</title>
    <g id="PRODUCT-PAGE" stroke="none" stroke-width="1" fill="none" fill-rule="evenodd">
        <g id="Product-page" transform="translate(-194.000000, -1370.000000)" fill="#0FF6F6">
            <g id="Group-7" transform="translate(194.000000, 1352.000000)">
                <path d="M1.5,18 C2.32842712,18 3,18.6715729 3,19.5 L3,56.5 C3,57.3284271 2.32842712,58 1.5,58 C0.671572875,58 1.01453063e-16,57.3284271 0,56.5 L0,19.5 C-1.01453063e-16,18.6715729 0.671572875,18 1.5,18 Z M38,41 C39.1045695,41 40,41.8954305 40,43 L40,53 C40,54.1045695 39.1045695,55 38,55 L10,55 C8.8954305,55 8,54.1045695 8,53 L8,43 C8,41.8954305 8.8954305,41 10,41 L38,41 Z M38,21 C39.1045695,21 40,21.8954305 40,23 L40,33 C40,34.1045695 39.1045695,35 38,35 L10,35 C8.8954305,35 8,34.1045695 8,33 L8,23 C8,21.8954305 8.8954305,21 10,21 L38,21 Z" id="timeline-icon"></path>
            </g>
        </g>
    </g>
</svg>