<?xml version="1.0" encoding="UTF-8"?>
<svg width="41px" height="41px" viewBox="0 0 41 41" version="1.1" xmlns="http://www.w3.org/2000/svg" xmlns:xlink="http://www.w3.org/1999/xlink">
    <title>timemator-logo</title>
    <defs>
        <path d="M20.1595313,8.04715149 C26.849014,8.04715149 32.2719112,13.4700487 32.2719112,20.1595313 C32.2719112,26.849014 26.849014,32.2719112 20.1595313,32.2719112 C13.4700487,32.2719112 8.04715149,26.849014 8.04715149,20.1595313 C8.04715149,13.4700487 13.4700487,8.04715149 20.1595313,8.04715149 Z M20.1595313,13.1838152 C16.3069497,13.1838152 13.1838152,16.3069497 13.1838152,20.1595313 C13.1838152,24.012113 16.3069497,27.1352475 20.1595313,27.1352475 C24.012113,27.1352475 27.1352475,24.012113 27.1352475,20.1595313 C27.1352475,16.3069497 24.012113,13.1838152 20.1595313,13.1838152 Z" id="path-1"></path>
        <filter x="-16.5%" y="-12.4%" width="133.0%" height="137.2%" filterUnits="objectBoundingBox" id="filter-2">
            <feOffset dx="0" dy="2" in="SourceAlpha" result="shadowOffsetOuter1"></feOffset>
            <feGaussianBlur stdDeviation="1" in="shadowOffsetOuter1" result="shadowBlurOuter1"></feGaussianBlur>
            <feColorMatrix values="0 0 0 0 0   0 0 0 0 0   0 0 0 0 0  0 0 0 0.25 0" type="matrix" in="shadowBlurOuter1" result="shadowMatrixOuter1"></feColorMatrix>
            <feOffset dx="0" dy="0" in="SourceAlpha" result="shadowOffsetOuter2"></feOffset>
            <feGaussianBlur stdDeviation="0.5" in="shadowOffsetOuter2" result="shadowBlurOuter2"></feGaussianBlur>
            <feColorMatrix values="0 0 0 0 0   0 0 0 0 0   0 0 0 0 0  0 0 0 0.5 0" type="matrix" in="shadowBlurOuter2" result="shadowMatrixOuter2"></feColorMatrix>
            <feMerge>
                <feMergeNode in="shadowMatrixOuter1"></feMergeNode>
                <feMergeNode in="shadowMatrixOuter2"></feMergeNode>
            </feMerge>
        </filter>
    </defs>
    <g id="PRODUCT-PAGE" stroke="none" stroke-width="1" fill="none" fill-rule="evenodd">
        <g id="Product-page" transform="translate(-74.000000, -44.000000)">
            <g id="TM-Logo" transform="translate(74.000000, 44.000000)">
                <path d="M7.74624662,30.0401218 C8.49118112,30.0401218 9.16204193,30.357269 9.63117299,30.8639072 L9.66017385,30.8369804 C12.1402777,33.2787503 15.468073,34.8620075 19.1619153,35.1051074 L19.1619153,35.1051074 L19.1609862,35.118179 C20.5056296,35.2000297 21.5708477,36.3164682 21.5708477,37.6817018 C21.5708477,39.1001523 20.4209663,40.2500336 19.0025158,40.2500336 C18.8530955,40.2500336 18.7066554,40.2372738 18.5642257,40.2127844 C13.8198305,39.8395321 9.5387229,37.8201811 6.29184098,34.7254076 C5.61896242,34.2623956 5.17791477,33.4869307 5.17791477,32.6084537 C5.17791477,31.1900032 6.32779611,30.0401218 7.74624662,30.0401218 Z M20.1925205,0.0690287661 C31.2797943,0.0868363562 40.2622769,9.0803065 40.2622769,20.1717479 C40.2622769,27.8519868 35.9553265,34.5262835 29.6249357,37.9111281 C29.1987417,38.225489 28.6723601,38.4109812 28.1026546,38.4109812 C26.6842041,38.4109812 25.5343228,37.2610998 25.5343228,35.8426493 C25.5343228,34.8339646 26.1158038,33.961092 26.9618431,33.5409544 L26.9475272,33.5134958 C31.8014026,31.0390213 35.1256132,25.9935901 35.1256132,20.1717479 C35.1256132,11.9172405 28.4429436,5.22355422 20.1926172,5.20570177 L20.3391368,5.20779803 C20.2850957,5.21119161 20.2306012,5.21291395 20.1757045,5.21291395 C18.7572539,5.21291395 17.6073726,4.06303261 17.6073726,2.6445821 C17.6073726,1.22613159 18.7572539,0.0762502503 20.1757045,0.0762502503 C20.1813943,0.0762502503 20.1870799,0.0762687527 20.192761,0.0763057007 Z M2.71782209,16.2222535 C4.13605657,16.2470089 5.26569458,17.4167833 5.2409392,18.8350177 C5.23918465,18.935536 5.23167825,19.0346046 5.21873922,19.1319152 L5.22900001,19.1320538 C5.20542904,19.4755617 5.19344944,19.8222558 5.19344944,20.1717479 C5.19344944,21.4440925 5.35222265,22.6793538 5.65103692,23.8587994 L5.65103692,23.8587994 C5.69048246,24.0561945 5.7123751,24.2617953 5.70869023,24.4729012 C5.68393486,25.8911356 4.51416046,27.0207736 3.09592598,26.9960183 C1.86116939,26.9744655 0.845167629,26.0849935 0.619288771,24.9192712 C0.252039027,23.3966803 0.0567857394,21.807016 0.0567857394,20.1717479 C0.0567857394,19.6979213 0.073178768,19.2279236 0.105428613,18.7622908 L0.105057842,18.7453706 C0.129813217,17.3271361 1.29958762,16.1974981 2.71782209,16.2222535 Z" id="Middle-Ring" fill="#00FEFF"></path>
                <g id="Inner-Ring">
                    <use fill="black" fill-opacity="1" filter="url(#filter-2)" xlink:href="#path-1"></use>
                    <use fill="#00FEFF" fill-rule="evenodd" xlink:href="#path-1"></use>
                </g>
                <circle id="Oval" fill="#FFFFFF" transform="translate(5.716947, 10.222746) rotate(1.000000) translate(-5.716947, -10.222746) " cx="5.71694738" cy="10.2227464" r="2.56833185"></circle>
            </g>
        </g>
    </g>
</svg>