<?xml version="1.0" encoding="UTF-8"?>
<svg width="40px" height="49px" viewBox="0 0 40 49" version="1.1" xmlns="http://www.w3.org/2000/svg" xmlns:xlink="http://www.w3.org/1999/xlink">
    <title>time-tracking-icon</title>
    <g id="PRODUCT-PAGE" stroke="none" stroke-width="1" fill="none" fill-rule="evenodd">
        <g id="Product-page" transform="translate(-770.000000, -4639.000000)" fill="#0FF6F6">
            <g id="Text" transform="translate(770.000000, 4639.000000)">
                <path d="M20,8.59375 C31.0457114,8.59375 40,17.5479581 40,28.59375 C40,39.6395419 31.0457114,48.59375 20,48.59375 C8.95428859,48.59375 0,39.6395419 0,28.59375 C0,17.5479581 8.95428859,8.59375 20,8.59375 Z M20,12.59375 C11.1634309,12.59375 4,19.7571165 4,28.59375 C4,37.4303835 11.1634309,44.59375 20,44.59375 C28.8365691,44.59375 36,37.4303835 36,28.59375 C36,19.7571165 28.8365691,12.59375 20,12.59375 Z M20,16.59375 C26.6274268,16.59375 32,21.9662749 32,28.59375 C32,31.9074876 30.6568567,34.9074876 28.4852851,37.0790532 L20,28.59375 L20,16.59375 Z M33.020681,5.19556502 L36.215223,7.60282512 C36.6562972,7.93519838 36.7444167,8.56220144 36.4120435,9.00327565 L34.1251464,12.0380906 L29.3333333,8.42720045 L31.6202304,5.39238551 C31.9526037,4.9513113 32.5796067,4.86319176 33.020681,5.19556502 Z M22.8422293,0.59375 C23.6295615,0.59375 24.2666667,1.23781588 24.2666667,2.03375 L24.2666667,2.03375 L24.2666667,5.27373118 L22.308056,5.28886529 L22.308056,7.29541549 C21.3732527,7.16041314 20.4274264,7.06463902 19.4591814,7.06463902 C18.4909364,7.06463902 17.54511,7.16041314 16.6103067,7.29541549 L16.6103067,7.29541549 L16.6103067,5.28886529 L14.6666667,5.27373118 L14.6666667,2.03375 C14.6666667,1.23781588 15.3037719,0.59375 16.091104,0.59375 L16.091104,0.59375 Z" id="time-tracking-icon"></path>
            </g>
        </g>
    </g>
</svg>